<mxfile host="app.diagrams.net" modified="2024-01-15T14:35:37.709Z" agent="Mozilla/5.0 (X11; Linux x86_64; rv:121.0) Gecko/20100101 Firefox/121.0" etag="fmvr678gu1Vi8bbfO0Ac" version="22.1.18" type="device">
  <diagram name="Страница — 1" id="g1viPprg68VL1nujRdKg">
    <mxGraphModel dx="-1014" dy="-71" grid="0" gridSize="10" guides="1" tooltips="1" connect="1" arrows="1" fold="1" page="0" pageScale="1" pageWidth="827" pageHeight="1169" math="0" shadow="0">
      <root>
        <mxCell id="0" />
        <mxCell id="1" parent="0" />
        <mxCell id="KAlw1xMLLrrgvb6lXqrv-451" value="" style="rounded=0;whiteSpace=wrap;html=1;fillColor=#f8cecc;strokeColor=#b85450;" vertex="1" parent="1">
          <mxGeometry x="2041.5" y="630.63" width="71" height="72.75" as="geometry" />
        </mxCell>
        <mxCell id="KAlw1xMLLrrgvb6lXqrv-448" value="" style="rounded=0;whiteSpace=wrap;html=1;dashed=1;dashPattern=8 8;fillColor=#f8cecc;strokeColor=#b85450;" vertex="1" parent="1">
          <mxGeometry x="1796" y="692" width="152" height="71" as="geometry" />
        </mxCell>
        <mxCell id="KAlw1xMLLrrgvb6lXqrv-438" value="0" style="rounded=0;orthogonalLoop=1;jettySize=auto;html=1;exitX=0;exitY=1;exitDx=0;exitDy=0;entryX=0.5;entryY=0;entryDx=0;entryDy=0;fontSize=25;" edge="1" parent="1" source="KAlw1xMLLrrgvb6lXqrv-440" target="KAlw1xMLLrrgvb6lXqrv-441">
          <mxGeometry relative="1" as="geometry" />
        </mxCell>
        <mxCell id="KAlw1xMLLrrgvb6lXqrv-439" value="1" style="rounded=0;orthogonalLoop=1;jettySize=auto;html=1;exitX=1;exitY=1;exitDx=0;exitDy=0;entryX=0.5;entryY=0;entryDx=0;entryDy=0;fontSize=25;dashed=1;" edge="1" parent="1" source="KAlw1xMLLrrgvb6lXqrv-440" target="KAlw1xMLLrrgvb6lXqrv-442">
          <mxGeometry relative="1" as="geometry" />
        </mxCell>
        <mxCell id="KAlw1xMLLrrgvb6lXqrv-440" value="" style="ellipse;whiteSpace=wrap;html=1;aspect=fixed;fontSize=30;" vertex="1" parent="1">
          <mxGeometry x="1851" y="582.0017647058825" width="50" height="50" as="geometry" />
        </mxCell>
        <mxCell id="KAlw1xMLLrrgvb6lXqrv-441" value="&lt;font style=&quot;font-size: 15px;&quot;&gt;110100&lt;/font&gt;" style="ellipse;whiteSpace=wrap;html=1;aspect=fixed;fontSize=30;fillColor=#ffe6cc;strokeColor=#d79b00;" vertex="1" parent="1">
          <mxGeometry x="1812" y="704.2517647058825" width="50" height="50" as="geometry" />
        </mxCell>
        <mxCell id="KAlw1xMLLrrgvb6lXqrv-442" value="" style="ellipse;whiteSpace=wrap;html=1;aspect=fixed;fontSize=30;fillColor=#dae8fc;strokeColor=#6c8ebf;dashed=1;" vertex="1" parent="1">
          <mxGeometry x="1891" y="703.2517647058825" width="50" height="50" as="geometry" />
        </mxCell>
        <mxCell id="KAlw1xMLLrrgvb6lXqrv-443" value="" style="shape=flexArrow;endArrow=classic;html=1;rounded=0;fillColor=#000000;" edge="1" parent="1">
          <mxGeometry width="50" height="50" relative="1" as="geometry">
            <mxPoint x="1957" y="667.0017647058825" as="sourcePoint" />
            <mxPoint x="2037" y="667.0017647058825" as="targetPoint" />
          </mxGeometry>
        </mxCell>
        <mxCell id="KAlw1xMLLrrgvb6lXqrv-444" value="11010" style="endArrow=classic;html=1;rounded=0;entryX=0.5;entryY=0;entryDx=0;entryDy=0;" edge="1" parent="1" target="KAlw1xMLLrrgvb6lXqrv-440">
          <mxGeometry width="50" height="50" relative="1" as="geometry">
            <mxPoint x="1876" y="507.00176470588247" as="sourcePoint" />
            <mxPoint x="1887" y="557.0017647058825" as="targetPoint" />
          </mxGeometry>
        </mxCell>
        <mxCell id="KAlw1xMLLrrgvb6lXqrv-445" value="&lt;font style=&quot;font-size: 15px;&quot;&gt;11010&lt;/font&gt;" style="ellipse;whiteSpace=wrap;html=1;aspect=fixed;fontSize=30;fillColor=#ffe6cc;strokeColor=#d79b00;" vertex="1" parent="1">
          <mxGeometry x="2052" y="642.0017647058825" width="50" height="50" as="geometry" />
        </mxCell>
        <mxCell id="KAlw1xMLLrrgvb6lXqrv-446" value="11010" style="endArrow=classic;html=1;rounded=0;entryX=0.5;entryY=0;entryDx=0;entryDy=0;" edge="1" parent="1" target="KAlw1xMLLrrgvb6lXqrv-445">
          <mxGeometry width="50" height="50" relative="1" as="geometry">
            <mxPoint x="2078" y="507.00176470588247" as="sourcePoint" />
            <mxPoint x="2088" y="617.0017647058825" as="targetPoint" />
          </mxGeometry>
        </mxCell>
        <mxCell id="KAlw1xMLLrrgvb6lXqrv-449" value="" style="curved=1;endArrow=classic;html=1;rounded=0;entryX=0;entryY=0.5;entryDx=0;entryDy=0;exitX=0;exitY=0;exitDx=0;exitDy=0;dashed=1;dashPattern=8 8;" edge="1" parent="1" source="KAlw1xMLLrrgvb6lXqrv-448" target="KAlw1xMLLrrgvb6lXqrv-440">
          <mxGeometry width="50" height="50" relative="1" as="geometry">
            <mxPoint x="1801" y="656" as="sourcePoint" />
            <mxPoint x="1851" y="606" as="targetPoint" />
            <Array as="points">
              <mxPoint x="1801" y="606" />
            </Array>
          </mxGeometry>
        </mxCell>
        <mxCell id="KAlw1xMLLrrgvb6lXqrv-450" value="&lt;font style=&quot;font-size: 15px;&quot;&gt;-1 бит&lt;/font&gt;" style="edgeLabel;html=1;align=center;verticalAlign=middle;resizable=0;points=[];" vertex="1" connectable="0" parent="KAlw1xMLLrrgvb6lXqrv-449">
          <mxGeometry x="-0.2212" y="-6" relative="1" as="geometry">
            <mxPoint as="offset" />
          </mxGeometry>
        </mxCell>
      </root>
    </mxGraphModel>
  </diagram>
</mxfile>
